<?xml version="1.0" encoding="UTF-8"?>
<svg id="_レイヤー_1" data-name="レイヤー_1" xmlns="http://www.w3.org/2000/svg" version="1.1" viewBox="0 0 724.55983 121.78343">
  <!-- Generator: Adobe Illustrator 29.0.1, SVG Export Plug-In . SVG Version: 2.1.0 Build 192)  -->
  <defs>
    <style>
      .st0 {
        fill: #231815;
      }
    </style>
  </defs>
  <path class="st0" d="M10.67062,47.51999H1.48616C7.27478,21.75737,29.44084,2.1252,56.42952.16346c1.47128-.11143,2.95744-.16346,4.45848-.16346s2.9872.05202,4.45848.16346v25.78489c3.13582.39385,6.14529,1.21122,8.96898,2.37787l12.48374-12.48374c-3.89373-2.24412-8.09955-3.99778-12.53576-5.17185V1.48616c6.85122,1.53818,13.26401,4.23557,19.02288,7.86919,2.5562,1.61252,4.9786,3.40332,7.25243,5.36506l-24.60338,24.60338c-2.5859-1.81312-5.51364-3.17297-8.6643-3.95319-.63165-.16346-1.27812-.2972-1.9246-.40869-1.44902-.25267-2.94257-.37898-4.45848-.37898s-3.00947.12631-4.45848.37898V9.11017c-22.05462,1.87997-40.22294,17.59613-45.75889,38.40982ZM25.94835,65.35392c1.61252,12.75124,10.06877,23.39215,21.5642,28.12557v-9.94242c-6.51683-3.85659-11.22793-10.44771-12.55064-18.18315-.25262-1.44902-.37893-2.94261-.37893-4.45848,0-1.52335.12631-3.00951.37893-4.45848,1.3227-7.73549,6.03381-14.32661,12.55064-18.19064v-9.94242c-11.49543,4.73342-19.95169,15.38177-21.5642,28.13305H.1635c-.11148,1.47128-.1635,2.95744-.1635,4.45848s.05202,2.98715.1635,4.45848h25.78485ZM121.61254,56.43695H56.42952v8.91696h30.392c-.23035,1.33754-.55731,2.64536-.98087,3.90856-1.12206,3.31415-2.88315,6.3385-5.1421,8.91696-3.89378,4.46592-9.26623,7.60174-15.35206,8.64203-1.44902.25267-2.94257.37898-4.45848.37898s-3.00947-.12631-4.45848-.37898v25.85179c-22.05462-1.88001-40.22294-17.59613-45.75889-38.40238H1.48616c5.78862,25.75514,27.95468,45.38731,54.94336,47.34905,1.47128.11148,2.95744.1635,4.45848.1635s2.9872-.05202,4.45848-.1635v-25.78489c11.25768-1.4267,20.87314-8.18132,26.23072-17.65559,1.5605-2.76424,2.76428-5.75887,3.52963-8.91696.31213-1.27808.55731-2.57847.72081-3.90856h16.83818c-.11143,1.31522-.27494,2.62305-.48297,3.90856-.4979,3.06893-1.26325,6.04868-2.28126,8.91696-5.67714,16.058-19.03027,28.51203-35.63814,32.93332v9.18451c21.53445-4.8449,38.7888-21.1332,45.00838-42.11783.86195-2.88311,1.50847-5.86287,1.9246-8.91696.18577-1.29295.31952-2.59334.41612-3.90856.11143-1.47133.16346-2.95749.16346-4.45848s-.05202-2.9872-.16346-4.45848Z"/>
  <g>
    <path class="st0" d="M159.67164,109.17536c-5.94238,0-11.03857-1.06445-15.28711-3.19629-4.25-2.12988-7.49219-5.05469-9.72803-8.77148-2.2373-3.7168-3.35449-7.9541-3.35449-12.71191v-4.46094c0-4.80566,1.15039-9.05566,3.4502-12.74902,2.30029-3.69092,5.60693-6.60303,9.91992-8.73438,4.31299-2.13037,9.50342-3.19678,15.57422-3.19678,5.75049,0,10.43066.75635,14.04102,2.26758,3.60889,1.51221,6.37354,3.44482,8.29053,5.79834,1.91699,2.35449,3.19434,4.77051,3.8335,7.24805l-7.37988,2.15527c-.57471-2.03125-1.59766-3.90234-3.06689-5.6123-1.4707-1.70947-3.4834-3.09668-6.03809-4.1626-2.55615-1.06543-5.87939-1.59863-9.96777-1.59863-6.58154,0-11.59668,1.64844-15.04688,4.94385-3.45068,3.2959-5.17578,7.59473-5.17578,12.89746v5.94727c0,5.30371,1.7251,9.60254,5.17578,12.89746,3.4502,3.29688,8.56104,4.94336,15.33447,4.94336,4.60059,0,8.32178-.73047,11.16602-2.19238,2.84229-1.46094,4.93555-3.32031,6.27734-5.5752s2.0127-4.52246,2.0127-6.80273v-.8916h-24.15234v-5.94727h32.20312v26.61328h-7.85889v-8.69727c-1.59814,3.02344-4.02539,5.37793-7.28418,7.06152-3.25879,1.68457-7.57129,2.52734-12.93848,2.52734Z"/>
    <path class="st0" d="M200.40309,108.28376v-35.53418h7.85938v4.75781c1.3418-1.78418,2.93799-3.1709,4.79199-4.16309,1.85254-.99023,4.2168-1.48633,7.09229-1.48633,3.00244,0,5.54248.74316,7.61963,2.23047,2.07568,1.48633,3.11475,3.46875,3.11475,5.94629v5.50098h-7.85889v-4.31152c0-1.33789-.46436-2.3418-1.39014-3.01074-.92676-.66895-2.125-1.00293-3.59375-1.00293-1.59814,0-2.95605.30957-4.07324.92871-1.11865.62012-2.09375,1.35156-2.92334,2.19336-1.27881,1.28906-2.06055,2.55273-2.34814,3.79102-.2876,1.23926-.43115,2.80078-.43115,4.68359v19.47656h-7.85938Z"/>
    <path class="st0" d="M254.84157,109.17536c-4.47314,0-8.11523-.95312-10.92627-2.86133-2.81201-1.90723-4.2168-4.49805-4.2168-7.76855,0-2.92383,1.18164-5.33984,3.5459-7.24805,2.36328-1.90723,5.87793-3.10938,10.54297-3.60547l11.30908-1.18945c1.40479-.14844,2.39648-.49512,2.97119-1.04102.5752-.54395.86279-1.26367.86279-2.15527,0-1.88281-.94336-3.32031-2.82764-4.31152-1.88525-.99121-4.2334-1.4873-7.04443-1.4873-2.81201,0-5.17529.5459-7.09229,1.63574-1.9165,1.09082-3.22705,2.62695-3.9292,4.60938l-7.18848-1.56152c.76709-2.87402,2.73145-5.31543,5.89453-7.32227,3.1626-2.00684,7.26758-3.01074,12.31543-3.01074,5.68652,0,10.06348,1.09082,13.13086,3.27051,3.06689,2.18164,4.6001,5.35254,4.6001,9.51562v23.63965h-7.57129v-6.98828c-.9585,2.42969-2.68359,4.34961-5.17578,5.76172-2.4917,1.41211-5.55859,2.11816-9.20068,2.11816ZM255.32057,103.52594c2.93848,0,5.41504-.50781,7.42773-1.52344s3.56152-2.35352,4.64844-4.01465c1.08594-1.66016,1.62939-3.45703,1.62939-5.38965v-2.08105c-.63916.39648-1.38965.70605-2.25244.92871-.8623.22363-1.93311.38477-3.21045.4834l-8.62598.74316c-4.9209.44629-7.37988,2.37891-7.37988,5.79883,0,1.53613.70264,2.7627,2.10889,3.67969,1.4043.91797,3.29004,1.375,5.6543,1.375Z"/>
    <path class="st0" d="M288.86451,108.28376v-35.53418h7.85938v5.87305c1.08545-2.17969,2.89014-3.85254,5.41504-5.01758,2.52344-1.16406,5.35059-1.74707,8.48193-1.74707,4.91943,0,8.68896,1.10352,11.30957,3.30762,2.61914,2.20605,3.9292,5.19238,3.9292,8.95801v24.16016h-7.85889v-23.63965c0-2.3291-.7666-4.10059-2.30029-5.31543-1.5332-1.21387-3.70654-1.82129-6.51709-1.82129-1.78955,0-3.40234.28613-4.84033.85547-1.4375.57031-2.69971,1.27637-3.78564,2.11816-1.3418,1.09082-2.31689,2.18164-2.92334,3.27148-.60791,1.08984-.91016,2.57715-.91016,4.45996v20.07129h-7.85938Z"/>
    <path class="st0" d="M354.89967,109.17536c-3.5791,0-6.80469-.66895-9.68018-2.00684s-5.16064-3.33203-6.85254-5.98438c-1.69385-2.65039-2.54004-5.93359-2.54004-9.84961v-1.63574c0-3.91406.84619-7.19727,2.54004-9.84961,1.69189-2.65039,3.97705-4.64648,6.85254-5.98438s6.10107-2.00684,9.68018-2.00684c3.5127,0,6.54883.59473,9.10449,1.78418,2.55469,1.18945,4.56738,2.75,6.03809,4.68359v-22.0791h7.85938v52.03711h-7.85938v-5.5752c-1.4707,1.93262-3.4834,3.49414-6.03809,4.68359-2.55566,1.18848-5.5918,1.7832-9.10449,1.7832ZM356.43287,103.52594c1.66113,0,3.27344-.22266,4.83984-.66895,1.56543-.44629,3.24219-1.3623,5.03223-2.75,1.08496-.84277,1.97949-1.78418,2.68359-2.8252.70215-1.04102,1.05371-2.3291,1.05371-3.86621v-5.79785c0-1.58594-.35156-2.89941-1.05371-3.94043-.7041-1.04004-1.59863-1.95703-2.68359-2.75-1.79004-1.38672-3.4668-2.30469-5.03223-2.75098-1.56641-.44531-3.17871-.66895-4.83984-.66895-2.2373,0-4.3291.37207-6.27734,1.11523-1.9502.74316-3.51514,2.01953-4.69629,3.82812-1.18311,1.80957-1.77344,4.27441-1.77344,7.39746v1.33789c0,3.12207.59033,5.5752,1.77344,7.35938,1.18115,1.78418,2.74609,3.06055,4.69629,3.82812,1.94824.76953,4.04004,1.15234,6.27734,1.15234Z"/>
    <path class="st0" d="M437.80201,109.17536c-9.2002,0-16.27832-2.19238-21.22852-6.57812-4.95312-4.38672-7.42773-10.39453-7.42773-18.02734v-4.75781c0-4.70801,1.14941-8.89551,3.4502-12.56348,2.2998-3.6665,5.58984-6.56592,9.87109-8.69727,4.28027-2.13037,9.39258-3.19678,15.33496-3.19678,5.68652,0,10.35156.76904,13.99316,2.30469,3.6416,1.53662,6.50098,3.55664,8.57812,6.05859,2.0752,2.50342,3.5293,5.19189,4.36035,8.06592l-7.47559,2.08105c-.5752-2.3291-1.61426-4.42285-3.11426-6.28125-1.50293-1.8584-3.5791-3.34521-6.23047-4.46045-2.65234-1.11523-6.05469-1.67285-10.20703-1.67285-4.3457,0-8.01953.75635-11.02148,2.26758-3.00391,1.51221-5.27148,3.59424-6.80469,6.24463-1.53418,2.65137-2.30078,5.68652-2.30078,9.10645v6.24414c0,5.7002,1.75684,10.08594,5.27148,13.1582,3.51367,3.07324,8.46582,4.6084,14.85547,4.6084,6.00488,0,10.47852-1.13867,13.41797-3.41895,2.93848-2.2793,4.95117-5.37695,6.03809-9.29297l7.76367,2.08203c-1.53418,5.05469-4.53809,9.10645-9.00977,12.1543-4.47266,3.04785-10.51074,4.57129-18.11426,4.57129Z"/>
    <path class="st0" d="M494.44459,109.17536c-4.08984,0-7.76367-.71875-11.02148-2.15527-3.25879-1.43652-5.81543-3.48145-7.66797-6.13281-1.85352-2.65039-2.7793-5.83594-2.7793-9.55273v-1.63574c0-3.7168.92578-6.90039,2.7793-9.55176,1.85254-2.65137,4.40918-4.69531,7.66797-6.13379,3.25781-1.43652,6.93164-2.15527,11.02148-2.15527,4.15234,0,7.84277.71875,11.06934,2.15527,3.22656,1.43848,5.76562,3.48242,7.62012,6.13379,1.85254,2.65137,2.7793,5.83496,2.7793,9.55176v1.63574c0,3.7168-.92676,6.90234-2.7793,9.55273-1.85449,2.65137-4.39355,4.69629-7.62012,6.13281s-6.91699,2.15527-11.06934,2.15527ZM494.44459,103.52594c4.15234,0,7.45898-1.05176,9.91992-3.15918,2.45898-2.10547,3.68945-5.16699,3.68945-9.18066v-1.33789c0-4.01465-1.23047-7.07422-3.68945-9.18164-2.46094-2.10547-5.76758-3.15918-9.91992-3.15918-4.1543,0-7.46094,1.05371-9.91992,3.15918-2.45996,2.10742-3.68945,5.16699-3.68945,9.18164v1.33789c0,4.01367,1.22949,7.0752,3.68945,9.18066,2.45898,2.10742,5.76562,3.15918,9.91992,3.15918Z"/>
    <path class="st0" d="M541.12037,109.17536c-4.9209,0-8.69043-1.10156-11.30957-3.30762-2.62109-2.20508-3.92969-5.19043-3.92969-8.95801v-24.16016h7.85938v23.63965c0,2.28027.7666,4.04004,2.2998,5.27832,1.5332,1.23926,3.70508,1.8584,6.51758,1.8584,1.78809,0,3.40234-.28418,4.83984-.85449,1.4375-.56934,2.69824-1.27539,3.78613-2.11914,1.3418-1.08887,2.31445-2.17969,2.92285-3.27051.60645-1.08984.91016-2.57617.91016-4.46094v-20.07129h7.85938v35.53418h-7.85938v-5.87305c-1.08691,2.18164-2.875,3.85449-5.36719,5.01855-2.49121,1.16309-5.33594,1.74609-8.5293,1.74609Z"/>
    <path class="st0" d="M575.14284,108.28376v-52.03711h7.85938v52.03711h-7.85938Z"/>
    <path class="st0" d="M614.43776,109.17536c-4.08984,0-7.74902-.71875-10.97461-2.15527-3.22656-1.43652-5.75-3.48145-7.57129-6.13281-1.82129-2.65039-2.73145-5.83594-2.73145-9.55273v-1.63574c0-3.41895.91016-6.4668,2.73145-9.14355,1.82129-2.67578,4.3125-4.79492,7.47559-6.35547,3.16309-1.56152,6.75684-2.3418,10.78223-2.3418,4.72754,0,8.62598.76855,11.69336,2.30469,3.06641,1.53613,5.36719,3.58105,6.90039,6.13281,1.5332,2.55273,2.2998,5.36523,2.2998,8.4375v2.82422h-34.02344v.29785c0,3.66797,1.19727,6.53027,3.59375,8.58594,2.39648,2.05762,5.73438,3.08496,10.01562,3.08496,6.38867,0,10.73438-2.23047,13.03418-6.69043l6.61328,2.37891c-1.59766,3.17188-4.04199,5.625-7.33203,7.35938-3.29102,1.73438-7.46094,2.60156-12.50684,2.60156ZM614.24537,77.35895c-3.25783,0-6.07031.78027-8.43359,2.3418-2.36523,1.56055-3.86719,3.85352-4.50488,6.87598h25.97363c-.25586-2.82422-1.48535-5.06641-3.69043-6.72754-2.2041-1.66016-5.31934-2.49023-9.34473-2.49023Z"/>
    <path class="st0" d="M660.05885,109.17536c-4.9209,0-8.69043-1.10156-11.30957-3.30762-2.62109-2.20508-3.92969-5.19043-3.92969-8.95801v-24.16016h7.85938v23.63965c0,2.28027.7666,4.04004,2.2998,5.27832,1.5332,1.23926,3.70508,1.8584,6.51758,1.8584,1.78809,0,3.40234-.28418,4.83984-.85449,1.4375-.56934,2.69824-1.27539,3.78613-2.11914,1.3418-1.08887,2.31445-2.17969,2.92285-3.27051.60645-1.08984.91016-2.57617.91016-4.46094v-20.07129h7.85938v35.53418h-7.85938v-5.87305c-1.08691,2.18164-2.875,3.85449-5.36719,5.01855-2.49121,1.16309-5.33594,1.74609-8.5293,1.74609Z"/>
    <path class="st0" d="M694.08131,108.28376v-35.53418h7.85938v4.75781c1.3418-1.78418,2.93848-3.1709,4.79199-4.16309,1.85254-.99023,4.2168-1.48633,7.09277-1.48633,3.00195,0,5.54199.74316,7.61914,2.23047,2.0752,1.48633,3.11523,3.46875,3.11523,5.94629v5.50098h-7.85938v-4.31152c0-1.33789-.46484-2.3418-1.38965-3.01074-.92676-.66895-2.125-1.00293-3.59473-1.00293-1.59766,0-2.95605.30957-4.07324.92871-1.11816.62012-2.09277,1.35156-2.92285,2.19336-1.2793,1.28906-2.06055,2.55273-2.34863,3.79102-.28711,1.23926-.43066,2.80078-.43066,4.68359v19.47656h-7.85938Z"/>
  </g>
  <g>
    <path class="st0" d="M145.77565,26.98786c-.86621,0-1.31494-.77002-1.31494-1.50781,0-.25635.06396-.54492.16016-.76953-1.66797.76953-3.27148,1.28271-3.49609,1.28271-.93018,0-1.69971-1.12256-1.69971-2.05273,0-.51318.25635-.99414.86572-1.18652,4.93945-1.41113,8.66016-3.75244,11.80322-6.92822.3208-.35254,1.02637-.5127,1.7002-.5127.67334,0,1.34717.16016,1.66748.48096,3.33594,3.0791,7.05664,5.42041,11.77148,6.86377.67334.19238.96191.73779.96191,1.31494,0,.9624-.7373,2.05273-1.66748,2.05273-.51318,0-2.34131-.83398-3.30371-1.28271.09619.22412.12842.48096.12842.7373,0,.73779-.41699,1.50781-1.31543,1.50781h-16.26123ZM143.97926,43.24909c-1.53955,0-2.30908-.76953-2.30908-2.30908v-8.56396c0-1.53955.76953-2.30908,2.30908-2.30908h19.66162c1.53955,0,2.30908.76953,2.30908,2.30908v8.56396c0,1.53955-.76953,2.30908-2.30908,2.30908h-19.66162ZM162.64625,33.56305c0-.3208-.16016-.48145-.48096-.48145h-16.71045c-.3208,0-.48096.16064-.48096.48145v6.18994c0,.3208.16016.48145.48096.48145h16.71045c.3208,0,.48096-.16064.48096-.48145v-6.18994ZM161.65211,23.97272c-2.69434-1.41113-5.16406-3.14307-7.34473-5.06787-.12842-.12793-.28857-.19238-.41699-.19238s-.28857.06445-.41699.19238c-2.08496,1.86035-4.58643,3.65674-7.34521,5.06787h15.52393Z"/>
    <path class="st0" d="M196.12526,20.31647c0-.57764-.44922-1.02637-1.02637-1.02637h-18.47461c-.57764,0-1.02637.44873-1.02637,1.02637v22.64404c0,.80176-.80176,1.18701-1.604,1.18701-.83398,0-1.63574-.38525-1.63574-1.18701v-23.83105c0-1.66748,1.34717-2.88672,2.88672-2.88672h21.23291c1.50781,0,2.88672,1.31543,2.88672,2.88672v19.46924c0,3.97705-1.25098,5.54883-5.26025,5.54883-1.05811,0-2.30908-.12842-3.78467-.3208-.83398-.12842-1.18652-.83398-1.18652-1.604,0-.89795.48096-1.82812,1.31494-1.82812.06396,0,.16016.03223.22461.03223,1.47559.28857,2.59814.51318,3.46387.51318,1.34717,0,1.98877-.57764,1.98877-2.40576v-18.21777ZM177.93922,24.74274c-.86621,0-1.31494-.73779-1.31494-1.47559s.44873-1.47559,1.31494-1.47559h15.8125c.89795,0,1.31494.73779,1.31494,1.47559s-.41699,1.47559-1.31494,1.47559h-15.8125ZM180.44117,38.5987c-1.53955,0-2.46973-.93018-2.46973-2.46973v-6.54346c0-1.53955.93018-2.46973,2.46973-2.46973h10.7124c1.53955,0,2.46973.93018,2.46973,2.46973v6.54346c0,1.53955-.93018,2.46973-2.46973,2.46973h-10.7124ZM190.51198,30.51569c0-.3208-.22412-.54492-.54492-.54492h-8.33936c-.3208,0-.54541.22412-.54541.54492v4.68311c0,.3208.22461.54492.54541.54492h8.33936c.3208,0,.54492-.22412.54492-.54492v-4.68311Z"/>
    <path class="st0" d="M209.33278,26.53864c-.86572,0-1.41113-.73779-1.41113-1.47559,0-.44873.16064-.86572.57764-1.18652-1.12256.48096-3.33594,1.09033-3.46436,1.09033-.96191,0-1.63574-1.02637-1.63574-1.92432,0-.60938.28906-1.15479.9624-1.34717,4.81104-1.41113,8.53174-3.43164,11.41846-5.67676.64111-.51318,1.37891-.77002,2.1167-.77002s1.47559.25684,2.08496.77002c2.82227,2.34131,6.18994,4.13721,11.41846,5.77295.67334.19238.96191.73779.96191,1.31543,0,.89795-.70557,1.89209-1.66797,1.89209-.44873,0-2.59766-.73779-3.14307-.99414.3208.3208.44922.70557.44922,1.09033,0,.73779-.54541,1.44336-1.37939,1.44336h-17.28809ZM214.78541,32.47223c-.8335,1.79639-2.18066,4.84326-4.13721,7.89014,7.05615-.35254,12.79736-.96191,15.65186-1.37891-.93018-1.25098-1.82812-2.40576-2.66211-3.33594-.25635-.28857-.35254-.60938-.35254-.89795,0-.80176.80176-1.47559,1.57129-1.47559.28857,0,.60938.12842.83398.38525,2.08496,2.30908,4.26611,5.09961,5.96582,7.76172.19238.28857.25635.57764.25635.86621,0,.96191-.89795,1.7959-1.73193,1.7959-.38477,0-.7373-.16016-.99414-.60938-.35303-.6416-.73779-1.28271-1.15479-1.92432-2.4375.44922-11.25781,1.53955-22.64404,2.05273h-.09619c-.9624,0-1.47559-.86621-1.47559-1.66797,0-.67334.38477-1.34717,1.21875-1.34717.60938,0,1.18701-.03174,1.76416-.06396,1.86035-2.40576,3.52832-5.70898,4.58643-8.05078h-6.25439c-.86572,0-1.31494-.7373-1.31494-1.44336,0-.7373.44922-1.44336,1.31494-1.44336h25.56299c.89844,0,1.31543.70605,1.31543,1.44336,0,.70605-.41699,1.44336-1.31543,1.44336h-15.90869ZM226.74928,23.65192c-3.43213-1.4751-6.22266-3.36768-8.53174-5.13184-.03223-.03174-.12842-.06396-.19238-.06396-.09619,0-.16064.03223-.22461.06396-2.50195,1.86035-5.61279,3.75293-8.88428,5.13184h17.83301Z"/>
    <path class="st0" d="M240.79078,31.63825c-2.79004,2.14941-3.39941,2.37354-3.78467,2.37354-.83398,0-1.53955-.80176-1.53955-1.60352,0-.41699.19238-.83398.67383-1.12256,4.13721-2.46973,7.24854-5.58105,9.0127-8.37158.03223-.06396.06396-.09619.06396-.16016s-.06396-.12842-.12793-.12842h-7.34521c-.86572,0-1.31494-.70557-1.31494-1.37891,0-.70557.44922-1.37939,1.31494-1.37939h3.04688v-3.30371c0-.89795.73779-1.31494,1.50781-1.31494.73779,0,1.4751.41699,1.4751,1.31494v3.30371h2.27734c1.53955,0,2.21338.99414,2.21338,2.18115,0,1.34717-1.15479,3.36768-3.59229,5.99756.80176.6416,2.56592,2.14893,3.56006,2.95117.35254.28857.48096.60938.48096.96191,0,.83398-.76953,1.66797-1.57129,1.66797-.28906,0-.54541-.09619-.80225-.3208-.76953-.67334-1.89209-1.89209-2.56592-2.46973v12.02783c0,.89795-.7373,1.31494-1.4751,1.31494-.77002,0-1.50781-.41699-1.50781-1.31494v-11.22607ZM247.8152,43.28132c-.86621,0-1.31494-.77002-1.31494-1.50732,0-.77002.44873-1.53955,1.31494-1.53955h6.83154v-15.55615h-4.65039c-.86621,0-1.31494-.76953-1.31494-1.50732,0-.77002.44873-1.50732,1.31494-1.50732h4.65039v-4.90771c0-.99414.83398-1.50732,1.7002-1.50732.80176,0,1.63574.51318,1.63574,1.50732v4.90771h4.49023c.89795,0,1.31494.7373,1.31494,1.50732,0,.73779-.41699,1.50732-1.31494,1.50732h-4.49023v15.55615h5.09961c.89795,0,1.31494.76953,1.31494,1.53955,0,.7373-.41699,1.50732-1.31494,1.50732h-15.26709Z"/>
    <path class="st0" d="M288.57252,23.17096c-2.27734,3.01514-6.99219,7.05615-8.56396,7.05615-1.05811,0-1.82812-.93018-1.82812-1.82812,0-.51318.25684-1.02637.83398-1.37939,4.10547-2.30908,7.69775-6.47852,9.14111-10.16748.28857-.64111.93018-.92969,1.57178-.92969.89795,0,1.86035.54492,1.86035,1.50732,0,.70557-.80225,2.18115-1.02637,2.62988h10.64844c2.37354,0,3.62402,1.2832,3.62402,3.36768,0,.25684-.03174.57764-.06396.86621-1.41113,10.10352-6.76758,18.41064-20.94434,19.91797-.09619,0-.19238.03223-.28857.03223-1.15479,0-1.79639-.93018-1.79639-1.82861,0-.76953.48145-1.53955,1.50781-1.66748,10.90479-1.25098,16.67822-7.02441,17.99316-16.55029.03223-.16064.03223-.28857.03223-.41699,0-.48096-.22461-.60938-.76953-.60938h-11.93164ZM304.9944,20.95759c-.3208,0-.67383-.16016-.93018-.54492-.80176-1.15479-1.47559-1.98877-2.24512-2.7583-.22461-.25684-.35303-.51318-.35303-.77002,0-.60938.57764-1.12256,1.18701-1.12256.28857,0,.60938.12842.86572.38477,1.79639,1.73193,2.72656,3.11133,2.72656,3.62451,0,.67383-.60938,1.18652-1.25098,1.18652ZM308.04127,19.12946c-.28857,0-.60938-.12793-.86572-.48096-.70605-.99414-1.47559-1.86035-2.21338-2.53369-.25635-.25684-.38477-.51318-.38477-.77002,0-.57715.54541-1.05811,1.15479-1.05811.28857,0,.57715.12793.83398.35254,2.56592,2.46973,2.62988,3.11133,2.62988,3.36768,0,.60938-.54541,1.12256-1.15479,1.12256Z"/>
    <path class="st0" d="M312.97438,28.11042c-.9624,0-1.47559-.83398-1.47559-1.63574,0-.83398.51318-1.63574,1.47559-1.63574h21.0083c2.18115,0,3.49609,1.4751,3.49609,3.3999,0,.25635,0,.51318-.06445.80176-1.28271,7.34473-6.1582,13.59912-17.76855,15.07471-.09619,0-.19287.03223-.28906.03223-1.1543,0-1.82812-.99463-1.82812-1.95654,0-.77002.41699-1.47559,1.41113-1.63574,9.94336-1.57178,13.375-5.48486,14.85059-11.32227.03174-.12842.06396-.25684.06396-.38477,0-.48145-.3208-.73779-.80176-.73779h-20.07812ZM315.05885,20.41266c-.99414,0-1.50732-.83398-1.50732-1.63574,0-.83398.51318-1.63574,1.50732-1.63574h18.76318c.99463,0,1.50781.80176,1.50781,1.63574,0,.80176-.51318,1.63574-1.50781,1.63574h-18.76318Z"/>
    <path class="st0" d="M353.31666,25.12751c-1.98877-1.41113-5.58105-3.43213-8.33936-4.65088-.70557-.3208-.99414-.86572-.99414-1.41113,0-.93018.76953-1.89258,1.82812-1.89258.93018,0,6.51123,2.72656,9.36572,4.71484.60938.41699.86572.9624.86572,1.47559,0,1.02637-.96191,2.02051-1.92432,2.02051-.25635,0-.54541-.06396-.80176-.25635ZM346.32448,43.66608c-.12842.03223-.25635.03223-.38477.03223-1.21875,0-1.92432-1.02637-1.92432-1.98877,0-.7373.44873-1.4751,1.37891-1.63574,12.38037-2.1167,18.79541-7.28076,21.77783-16.71045.22461-.70557.86621-1.05859,1.54004-1.05859.92969,0,1.86035.60938,1.86035,1.66797,0,.16064-.03223.3208-.06445.51318-2.53418,9.55811-10.71289,17.22363-24.18359,19.18018Z"/>
    <path class="st0" d="M385.38307,22.62555c-2.27637,3.01514-6.99121,7.05664-8.56348,7.05664-1.05762,0-1.82812-.93018-1.82812-1.82861,0-.51318.25684-1.02637.83398-1.37891,4.10547-2.30957,7.69824-6.479,9.14062-10.16748.28906-.6416.93066-.93018,1.57227-.93018.89746,0,1.86035.54541,1.86035,1.50732,0,.70557-.80176,2.18115-1.02637,2.63037h10.64844c2.37305,0,3.62402,1.28271,3.62402,3.36768,0,.25635-.03224.57715-.06348.86572-1.41211,10.10352-6.76758,18.41064-20.94434,19.91797-.09668,0-.19238.03223-.28906.03223-1.1543,0-1.7959-.93018-1.7959-1.82812,0-.77002.48145-1.53955,1.50781-1.66797,10.9043-1.25098,16.67772-7.02441,17.99316-16.55029.03223-.16016.03223-.28857.03223-.41699,0-.48096-.22461-.60938-.77051-.60938h-11.93164Z"/>
    <path class="st0" d="M412.35182,17.46198c0-1.02637.86621-1.50781,1.76367-1.50781.86621,0,1.73242.48145,1.73242,1.50781v10.84082c0,6.479-1.7959,11.89941-6.92773,15.13867-.35352.22461-.73828.35303-1.05859.35303-1.05859,0-1.89258-1.02637-1.89258-2.02051,0-.51318.22461-.99463.76953-1.34717,4.00977-2.66211,5.61328-6.83203,5.61328-12.12402v-10.84082ZM420.24147,17.36579c0-1.02637.86621-1.54004,1.76465-1.54004.86621,0,1.73143.51367,1.73143,1.54004v20.71973c0,.44873.1924.67334.48146.67334.09668,0,.19238-.03223.28906-.06396,3.94434-1.82813,6.51074-4.90723,8.17871-9.0127.35254-.86621.96191-1.25098,1.60352-1.25098.89844,0,1.7959.80176,1.7959,1.92432,0,.89795-2.62988,8.37109-10.9375,12.22021-.64062.28857-1.28223.41699-1.85938.41699-1.73242,0-3.04785-1.21875-3.04785-3.46387v-22.16309Z"/>
    <path class="st0" d="M441.78932,31.31794c-.96289,0-1.47559-.89844-1.47559-1.76416,0-.89795.5127-1.76416,1.47559-1.76416h22.06641c.96191,0,1.44336.89795,1.44336,1.76416,0,.89795-.48145,1.76416-1.44336,1.76416h-22.06641Z"/>
    <path class="st0" d="M476.48659,17.46198c0-1.02637.86621-1.50781,1.76367-1.50781.86621,0,1.73242.48145,1.73242,1.50781v10.84082c0,6.479-1.7959,11.89941-6.92773,15.13867-.35352.22461-.73828.35303-1.05859.35303-1.05859,0-1.89258-1.02637-1.89258-2.02051,0-.51318.22461-.99463.76953-1.34717,4.00977-2.66211,5.61328-6.83203,5.61328-12.12402v-10.84082ZM484.37623,17.36579c0-1.02637.86621-1.54004,1.76465-1.54004.86621,0,1.73145.51367,1.73145,1.54004v20.71973c0,.44873.19238.67334.48145.67334.09668,0,.19238-.03223.28906-.06396,3.94434-1.82813,6.51074-4.90723,8.17871-9.0127.35254-.86621.96191-1.25098,1.60352-1.25098.89844,0,1.7959.80176,1.7959,1.92432,0,.89795-2.62988,8.37109-10.9375,12.22021-.64062.28857-1.28223.41699-1.85938.41699-1.73242,0-3.04785-1.21875-3.04785-3.46387v-22.16309Z"/>
  </g>
</svg>