<svg id="logo" xmlns="http://www.w3.org/2000/svg" width="328" height="55" viewBox="0 0 328 55">
  <path id="パス_5" data-name="パス 5" d="M4.833,21.461H.673A27.605,27.605,0,0,1,25.557.074Q26.557,0,27.576,0T29.6.074V11.719a15.822,15.822,0,0,1,4.062,1.074l5.654-5.638a23.349,23.349,0,0,0-5.677-2.336V.671a27.525,27.525,0,0,1,11.9,5.977L34.391,17.759a11.777,11.777,0,0,0-3.924-1.785c-.286-.074-.579-.134-.872-.185a12,12,0,0,0-4.039,0V4.114A23.563,23.563,0,0,0,4.833,21.461Zm6.919,8.054a15.947,15.947,0,0,0,9.766,12.7v-4.49a11.892,11.892,0,0,1-5.684-8.212,11.9,11.9,0,0,1,0-4.027,11.905,11.905,0,0,1,5.684-8.215v-4.49a15.952,15.952,0,0,0-9.766,12.705H.074Q0,26.485,0,27.5t.074,2.014H11.752Zm43.326-4.027H25.557v4.027H39.322a11.931,11.931,0,0,1-13.765,9.7V50.886A23.564,23.564,0,0,1,4.833,33.542H.673A27.606,27.606,0,0,0,25.557,54.926q1,.076,2.019.074t2.019-.074V43.281a15.984,15.984,0,0,0,11.88-7.974,15.705,15.705,0,0,0,1.6-4.027,15.255,15.255,0,0,0,.326-1.765h7.626c-.05.594-.125,1.185-.219,1.765a23.03,23.03,0,0,1-1.033,4.027A23.6,23.6,0,0,1,33.634,50.181v4.148A27.639,27.639,0,0,0,54.018,35.308a26.523,26.523,0,0,0,.872-4.027c.084-.584.145-1.171.188-1.765q.076-1,.074-2.014t-.074-2.014Z" transform="translate(0 0)" fill="#fff"/>
  <g id="グループ_1" data-name="グループ 1" transform="translate(59.313 24.914)">
    <path id="パス_6" data-name="パス 6" d="M144.151,79.73a15.288,15.288,0,0,1-6.924-1.448,10.457,10.457,0,0,1-4.406-3.973,10.943,10.943,0,0,1-1.519-5.757v-2.02a10.384,10.384,0,0,1,6.055-9.73,15.788,15.788,0,0,1,7.054-1.448,16.656,16.656,0,0,1,6.359,1.027,9.414,9.414,0,0,1,3.755,2.626,8.634,8.634,0,0,1,1.736,3.283l-3.342.976a6.654,6.654,0,0,0-1.389-2.542,7.168,7.168,0,0,0-2.735-1.885,11.878,11.878,0,0,0-4.514-.724q-4.471,0-6.815,2.239a7.711,7.711,0,0,0-2.344,5.841v2.694a7.709,7.709,0,0,0,2.344,5.841q2.344,2.24,6.945,2.239a11.08,11.08,0,0,0,5.057-.993,6.809,6.809,0,0,0,2.843-2.525,5.974,5.974,0,0,0,.912-3.081v-.4H142.284V67.273h14.585V79.326H153.31V75.387a7.514,7.514,0,0,1-3.3,3.2,12.8,12.8,0,0,1-5.86,1.145Z" transform="translate(-131.302 -55.355)" fill="#fff"/>
    <path id="パス_7" data-name="パス 7" d="M200.4,88.355V72.262h3.56v2.155a6.592,6.592,0,0,1,2.17-1.885,6.779,6.779,0,0,1,3.212-.673,5.772,5.772,0,0,1,3.451,1.01,3.154,3.154,0,0,1,1.411,2.693v2.491h-3.559V76.1a1.573,1.573,0,0,0-.63-1.364,2.715,2.715,0,0,0-1.628-.454,3.756,3.756,0,0,0-1.845.421,5.776,5.776,0,0,0-1.324.993,3.717,3.717,0,0,0-1.063,1.717,9.607,9.607,0,0,0-.2,2.121v8.821Z" transform="translate(-169.107 -64.384)" fill="#fff"/>
    <path id="パス_8" data-name="パス 8" d="M246.557,88.759a8.643,8.643,0,0,1-4.949-1.3,4.178,4.178,0,0,1-.3-6.8,9.071,9.071,0,0,1,4.775-1.633l5.122-.539a2.306,2.306,0,0,0,1.346-.471,1.282,1.282,0,0,0,.391-.976,2.116,2.116,0,0,0-1.281-1.953,6.8,6.8,0,0,0-3.19-.674,6.413,6.413,0,0,0-3.212.741,3.813,3.813,0,0,0-1.78,2.088l-3.256-.707a5.717,5.717,0,0,1,2.67-3.316,12.387,12.387,0,0,1,11.525.118,4.958,4.958,0,0,1,2.083,4.31V88.355h-3.429V85.19a5.125,5.125,0,0,1-2.344,2.609,8.341,8.341,0,0,1-4.167.959Zm.217-2.559a7.415,7.415,0,0,0,3.364-.69,5.3,5.3,0,0,0,2.105-1.818,4.374,4.374,0,0,0,.738-2.441v-.943a3.658,3.658,0,0,1-1.02.421,8.529,8.529,0,0,1-1.454.219l-3.907.337q-3.343.3-3.342,2.626a1.906,1.906,0,0,0,.955,1.667A4.627,4.627,0,0,0,246.774,86.2Z" transform="translate(-190.606 -64.384)" fill="#fff"/>
    <path id="パス_9" data-name="パス 9" d="M288.865,88.355V72.262h3.56v2.66a4.916,4.916,0,0,1,2.452-2.272,9.065,9.065,0,0,1,3.841-.791,7.754,7.754,0,0,1,5.122,1.5,5.029,5.029,0,0,1,1.78,4.057V88.355H302.06V77.649a2.887,2.887,0,0,0-1.042-2.407,4.655,4.655,0,0,0-2.952-.825,5.911,5.911,0,0,0-2.192.387,6.981,6.981,0,0,0-1.715.959,5.316,5.316,0,0,0-1.324,1.482,4.165,4.165,0,0,0-.412,2.02v9.09Z" transform="translate(-217.504 -64.384)" fill="#fff"/>
    <path id="パス_10" data-name="パス 10" d="M344.465,80.218a10.269,10.269,0,0,1-4.384-.909,7.215,7.215,0,0,1-3.1-2.71,8.124,8.124,0,0,1-1.15-4.461V71.4a8.128,8.128,0,0,1,1.15-4.461,7.221,7.221,0,0,1,3.1-2.71,10.268,10.268,0,0,1,4.384-.909,9.7,9.7,0,0,1,4.123.808,7.135,7.135,0,0,1,2.735,2.121v-10h3.56V79.814h-3.56V77.289a7.139,7.139,0,0,1-2.735,2.121,9.707,9.707,0,0,1-4.123.808Zm.694-2.559a7.958,7.958,0,0,0,2.192-.3,6.922,6.922,0,0,0,2.279-1.245,5.586,5.586,0,0,0,1.215-1.28,3.061,3.061,0,0,0,.477-1.751V70.455a3.125,3.125,0,0,0-.477-1.785,5.043,5.043,0,0,0-1.215-1.245,6.933,6.933,0,0,0-2.279-1.246,8.178,8.178,0,0,0-5.035.2,4.336,4.336,0,0,0-2.127,1.734,6.065,6.065,0,0,0-.8,3.35v.606a5.977,5.977,0,0,0,.8,3.333,4.458,4.458,0,0,0,2.127,1.734,7.667,7.667,0,0,0,2.843.522Z" transform="translate(-243.197 -55.843)" fill="#fff"/>
    <path id="パス_11" data-name="パス 11" d="M422.124,79.73q-6.25,0-9.614-2.979a10.345,10.345,0,0,1-3.364-8.165V66.431a10.482,10.482,0,0,1,1.563-5.69,10.816,10.816,0,0,1,4.471-3.939,15.435,15.435,0,0,1,6.945-1.448,16.45,16.45,0,0,1,6.338,1.044,9.965,9.965,0,0,1,3.885,2.744,10.092,10.092,0,0,1,1.975,3.653l-3.386.943a7.239,7.239,0,0,0-1.41-2.845,7.056,7.056,0,0,0-2.822-2.02,12.034,12.034,0,0,0-4.623-.758,11.017,11.017,0,0,0-4.992,1.027,7.176,7.176,0,0,0-3.082,2.828,8.084,8.084,0,0,0-1.042,4.124v2.828a7.491,7.491,0,0,0,2.387,5.959,9.894,9.894,0,0,0,6.728,2.087q4.079,0,6.077-1.548a7.789,7.789,0,0,0,2.735-4.209l3.516.943a10.022,10.022,0,0,1-4.081,5.5,14.361,14.361,0,0,1-8.2,2.07Z" transform="translate(-283.31 -55.355)" fill="#fff"/>
    <path id="パス_12" data-name="パス 12" d="M482.7,88.759a12.249,12.249,0,0,1-4.992-.976,8.116,8.116,0,0,1-3.473-2.778,7.359,7.359,0,0,1-1.259-4.326v-.741a7.358,7.358,0,0,1,1.259-4.326,8.124,8.124,0,0,1,3.473-2.778,13.306,13.306,0,0,1,10,0,8.151,8.151,0,0,1,3.451,2.778,7.361,7.361,0,0,1,1.259,4.326v.741a7.362,7.362,0,0,1-1.259,4.326,8.144,8.144,0,0,1-3.451,2.778A12.212,12.212,0,0,1,482.7,88.759Zm0-2.559a6.674,6.674,0,0,0,4.493-1.431,5.173,5.173,0,0,0,1.671-4.158v-.606a5.175,5.175,0,0,0-1.671-4.158,7.769,7.769,0,0,0-8.985,0,5.173,5.173,0,0,0-1.671,4.158v.606a5.172,5.172,0,0,0,1.671,4.158A6.671,6.671,0,0,0,482.7,86.2Z" transform="translate(-318.231 -64.384)" fill="#fff"/>
    <path id="パス_13" data-name="パス 13" d="M532.783,89.247a7.747,7.747,0,0,1-5.122-1.5,5.024,5.024,0,0,1-1.78-4.057V72.75h3.559V83.456a2.9,2.9,0,0,0,1.042,2.391,4.585,4.585,0,0,0,2.952.842,5.9,5.9,0,0,0,2.192-.387,6.958,6.958,0,0,0,1.715-.96,5.31,5.31,0,0,0,1.324-1.481,4.172,4.172,0,0,0,.412-2.02V72.75h3.56V88.843h-3.56v-2.66a4.926,4.926,0,0,1-2.431,2.273A9.033,9.033,0,0,1,532.783,89.247Z" transform="translate(-347.176 -64.871)" fill="#fff"/>
    <path id="パス_14" data-name="パス 14" d="M575.143,79.814V56.247H578.7V79.814Z" transform="translate(-374.127 -55.843)" fill="#fff"/>
    <path id="パス_15" data-name="パス 15" d="M602.8,88.759a12.1,12.1,0,0,1-4.97-.976,7.989,7.989,0,0,1-3.429-2.778,7.453,7.453,0,0,1-1.237-4.326v-.741A7.188,7.188,0,0,1,594.4,75.8a8.6,8.6,0,0,1,3.386-2.878,10.886,10.886,0,0,1,4.883-1.061,11.806,11.806,0,0,1,5.3,1.044,7.379,7.379,0,0,1,3.125,2.778,7.283,7.283,0,0,1,1.042,3.821V80.78H596.72v.135a4.848,4.848,0,0,0,1.628,3.889,6.745,6.745,0,0,0,4.536,1.4q4.34,0,5.9-3.03l3,1.077a7.547,7.547,0,0,1-3.321,3.333,12.086,12.086,0,0,1-5.664,1.178Zm-.087-14.41a6.771,6.771,0,0,0-3.819,1.061,4.729,4.729,0,0,0-2.04,3.114h11.763a4.111,4.111,0,0,0-1.671-3.047,6.918,6.918,0,0,0-4.232-1.128Z" transform="translate(-383.984 -64.384)" fill="#fff"/>
    <path id="パス_16" data-name="パス 16" d="M651.721,89.247a7.747,7.747,0,0,1-5.122-1.5,5.025,5.025,0,0,1-1.78-4.057V72.75h3.559V83.456a2.9,2.9,0,0,0,1.042,2.391,4.585,4.585,0,0,0,2.952.842,5.9,5.9,0,0,0,2.192-.387,6.958,6.958,0,0,0,1.715-.96A5.31,5.31,0,0,0,657.6,83.86a4.173,4.173,0,0,0,.412-2.02V72.75h3.56V88.843h-3.56v-2.66a4.925,4.925,0,0,1-2.431,2.273A9.033,9.033,0,0,1,651.721,89.247Z" transform="translate(-412.247 -64.871)" fill="#fff"/>
    <path id="パス_17" data-name="パス 17" d="M694.081,88.355V72.262h3.56v2.155a6.594,6.594,0,0,1,2.17-1.885,6.78,6.78,0,0,1,3.212-.673,5.772,5.772,0,0,1,3.451,1.01,3.155,3.155,0,0,1,1.411,2.693v2.491h-3.56V76.1a1.574,1.574,0,0,0-.629-1.364,2.716,2.716,0,0,0-1.628-.454,3.756,3.756,0,0,0-1.845.421,5.784,5.784,0,0,0-1.324.993,3.717,3.717,0,0,0-1.064,1.717,9.615,9.615,0,0,0-.2,2.121v8.821Z" transform="translate(-439.198 -64.384)" fill="#fff"/>
  </g>
  <g id="グループ_2" data-name="グループ 2" transform="translate(63.087 6.47)">
    <path id="パス_18" data-name="パス 18" d="M142.3,20.6a.628.628,0,0,1-.6-.683.935.935,0,0,1,.073-.349,8.328,8.328,0,0,1-1.583.581c-.421,0-.77-.508-.77-.93a.535.535,0,0,1,.392-.537,11.824,11.824,0,0,0,5.346-3.138,1.111,1.111,0,0,1,.77-.232,1.142,1.142,0,0,1,.755.218,13.474,13.474,0,0,0,5.331,3.109.585.585,0,0,1,.436.6c0,.436-.334.93-.755.93a7.326,7.326,0,0,1-1.5-.581.851.851,0,0,1,.058.334.619.619,0,0,1-.6.683Zm-.814,7.365a.924.924,0,0,1-1.046-1.046V23.041A.924.924,0,0,1,141.488,22h8.9a.924.924,0,0,1,1.046,1.046V26.92a.924.924,0,0,1-1.046,1.046Zm8.454-4.387a.193.193,0,0,0-.218-.218h-7.568a.193.193,0,0,0-.218.218v2.8a.193.193,0,0,0,.218.218h7.568a.193.193,0,0,0,.218-.218Zm-.45-4.343a16.883,16.883,0,0,1-3.326-2.3.248.248,0,0,0-.378,0,16.032,16.032,0,0,1-3.327,2.3Z" transform="translate(-139.425 -14.848)" fill="#fff"/>
    <path id="パス_19" data-name="パス 19" d="M183.122,18.088a.459.459,0,0,0-.465-.465H174.29a.459.459,0,0,0-.465.465V28.343c0,.363-.363.538-.726.538s-.741-.174-.741-.538V17.55a1.3,1.3,0,0,1,1.307-1.307h9.616a1.34,1.34,0,0,1,1.307,1.307v8.818c0,1.8-.567,2.513-2.382,2.513a13.835,13.835,0,0,1-1.714-.145.661.661,0,0,1-.537-.726c0-.407.218-.828.6-.828.029,0,.073.015.1.015a9.277,9.277,0,0,0,1.569.232c.61,0,.9-.262.9-1.09V18.088Zm-8.236,2a.673.673,0,0,1,0-1.337h7.162a.673.673,0,0,1,0,1.337Zm1.133,6.275a1.031,1.031,0,0,1-1.119-1.119V22.286a1.031,1.031,0,0,1,1.119-1.119h4.852a1.031,1.031,0,0,1,1.119,1.119v2.964a1.031,1.031,0,0,1-1.119,1.119Zm4.561-3.661a.236.236,0,0,0-.247-.247h-3.777a.236.236,0,0,0-.247.247v2.121a.236.236,0,0,0,.247.247h3.777a.236.236,0,0,0,.247-.247Z" transform="translate(-157.443 -15.357)" fill="#fff"/>
    <path id="パス_20" data-name="パス 20" d="M206.087,20.362a.674.674,0,0,1-.377-1.206,11.8,11.8,0,0,1-1.569.494.844.844,0,0,1-.741-.872.591.591,0,0,1,.436-.61,15.351,15.351,0,0,0,5.171-2.571,1.529,1.529,0,0,1,.959-.349,1.462,1.462,0,0,1,.944.349,14.391,14.391,0,0,0,5.171,2.615.585.585,0,0,1,.436.6.842.842,0,0,1-.755.857,7.628,7.628,0,0,1-1.423-.45.68.68,0,0,1,.2.494.635.635,0,0,1-.625.654h-7.83Zm2.469,2.687a28.439,28.439,0,0,1-1.874,3.573c3.2-.16,5.8-.436,7.089-.625-.421-.567-.828-1.09-1.206-1.511a.606.606,0,0,1-.16-.407.726.726,0,0,1,.712-.668.511.511,0,0,1,.378.174,27.835,27.835,0,0,1,2.7,3.515.682.682,0,0,1,.116.392.848.848,0,0,1-.784.813.492.492,0,0,1-.45-.276q-.24-.436-.523-.872a95.868,95.868,0,0,1-10.256.93h-.044a.7.7,0,0,1-.668-.755.556.556,0,0,1,.552-.61c.276,0,.538-.014.8-.029a19.509,19.509,0,0,0,2.077-3.646h-2.833a.61.61,0,0,1-.6-.654.6.6,0,0,1,.6-.654h11.578a.594.594,0,0,1,.6.654.6.6,0,0,1-.6.654h-7.205Zm5.418-3.995a18.107,18.107,0,0,1-3.864-2.324.157.157,0,0,0-.087-.029.212.212,0,0,0-.1.029,19.869,19.869,0,0,1-4.024,2.324Z" transform="translate(-174.425 -14.813)" fill="#fff"/>
    <path id="パス_21" data-name="パス 21" d="M237.878,22.672c-1.264.973-1.54,1.075-1.714,1.075a.743.743,0,0,1-.7-.726.578.578,0,0,1,.305-.508,12.4,12.4,0,0,0,4.082-3.792c.015-.029.029-.044.029-.073a.063.063,0,0,0-.058-.058H236.5a.594.594,0,0,1-.6-.625.587.587,0,0,1,.6-.625h1.38v-1.5a.681.681,0,0,1,1.351,0v1.5h1.031a.918.918,0,0,1,1,.988c0,.61-.523,1.525-1.627,2.716.363.291,1.162.973,1.612,1.337a.535.535,0,0,1,.218.436.784.784,0,0,1-.712.755.529.529,0,0,1-.363-.145c-.349-.3-.857-.857-1.162-1.119v5.447a.681.681,0,0,1-1.351,0V22.671Zm3.181,5.273a.7.7,0,0,1,0-1.38h3.094V19.519h-2.106a.628.628,0,0,1-.6-.683.62.62,0,0,1,.6-.683h2.106V15.931a.7.7,0,0,1,.77-.683.694.694,0,0,1,.741.683v2.223H247.7a.611.611,0,0,1,.6.683.619.619,0,0,1-.6.683h-2.034v7.045h2.31a.7.7,0,0,1,0,1.38h-6.914Z" transform="translate(-191.969 -14.813)" fill="#fff"/>
    <path id="パス_22" data-name="パス 22" d="M282.887,18.31c-1.031,1.366-3.167,3.2-3.879,3.2a.846.846,0,0,1-.828-.828.726.726,0,0,1,.378-.625,9.955,9.955,0,0,0,4.14-4.6.75.75,0,0,1,.712-.421.77.77,0,0,1,.843.683,4,4,0,0,1-.465,1.191h4.823a1.441,1.441,0,0,1,1.641,1.525,3.823,3.823,0,0,1-.029.392c-.639,4.576-3.065,8.338-9.486,9.021-.044,0-.087.015-.131.015a.8.8,0,0,1-.814-.828.739.739,0,0,1,.683-.755c4.939-.567,7.554-3.181,8.149-7.5a.89.89,0,0,0,.015-.189c0-.218-.1-.276-.349-.276h-5.4Zm7.438-1a.508.508,0,0,1-.421-.247,8.734,8.734,0,0,0-1.017-1.249.495.495,0,0,1,.378-.857.567.567,0,0,1,.392.174,3.983,3.983,0,0,1,1.235,1.642A.561.561,0,0,1,290.325,17.308Zm1.38-.828a.48.48,0,0,1-.392-.218,7.276,7.276,0,0,0-1-1.148.5.5,0,0,1-.174-.349.513.513,0,0,1,.523-.479.582.582,0,0,1,.378.16c1.162,1.119,1.191,1.409,1.191,1.525A.528.528,0,0,1,291.7,16.48Z" transform="translate(-215.338 -14.287)" fill="#fff"/>
    <path id="パス_23" data-name="パス 23" d="M312.167,22.109a.692.692,0,0,1-.668-.741.684.684,0,0,1,.668-.741h9.515a1.483,1.483,0,0,1,1.583,1.54,1.588,1.588,0,0,1-.029.363c-.581,3.326-2.789,6.159-8.047,6.827-.044,0-.087.015-.131.015a.849.849,0,0,1-.828-.886.708.708,0,0,1,.639-.741c4.5-.712,6.058-2.484,6.726-5.128a.74.74,0,0,0,.029-.174.321.321,0,0,0-.363-.334h-9.093Zm.944-3.486a.694.694,0,0,1-.683-.741.686.686,0,0,1,.683-.741h8.5a.686.686,0,0,1,.683.741.694.694,0,0,1-.683.741Z" transform="translate(-233.566 -15.848)" fill="#fff"/>
    <path id="パス_24" data-name="パス 24" d="M348.21,20.776a25.354,25.354,0,0,0-3.777-2.106.692.692,0,0,1-.45-.639.862.862,0,0,1,.828-.857,17.673,17.673,0,0,1,4.242,2.135.812.812,0,0,1,.392.668.956.956,0,0,1-.872.915A.6.6,0,0,1,348.21,20.776Zm-3.167,8.4a.7.7,0,0,1-.174.015.879.879,0,0,1-.872-.9.729.729,0,0,1,.625-.741c5.607-.959,8.512-3.3,9.863-7.568a.7.7,0,0,1,.7-.479.789.789,0,0,1,.843.755,1.441,1.441,0,0,1-.029.232c-1.148,4.329-4.852,7.8-10.953,8.687Z" transform="translate(-251.338 -15.866)" fill="#fff"/>
    <path id="パス_25" data-name="パス 25" d="M379.7,18.66c-1.031,1.366-3.166,3.2-3.878,3.2a.847.847,0,0,1-.828-.828.725.725,0,0,1,.378-.625,9.954,9.954,0,0,0,4.14-4.6.751.751,0,0,1,.712-.421.771.771,0,0,1,.843.683,4,4,0,0,1-.465,1.191h4.823a1.441,1.441,0,0,1,1.641,1.525c0,.116-.015.261-.029.392-.64,4.576-3.065,8.338-9.486,9.021-.044,0-.087.015-.131.015a.8.8,0,0,1-.813-.828.739.739,0,0,1,.683-.755c4.939-.567,7.553-3.181,8.149-7.5a.889.889,0,0,0,.015-.189c0-.218-.1-.276-.349-.276Z" transform="translate(-268.303 -14.883)" fill="#fff"/>
    <path id="パス_26" data-name="パス 26" d="M408.86,16.567a.8.8,0,0,1,1.583,0v4.91c0,2.934-.813,5.389-3.138,6.856a.941.941,0,0,1-.479.16.92.92,0,0,1-.857-.915.7.7,0,0,1,.349-.61c1.816-1.206,2.542-3.094,2.542-5.491v-4.91Zm3.573-.044a.8.8,0,0,1,1.583,0v9.384c0,.2.087.3.218.3a.429.429,0,0,0,.131-.029,7.225,7.225,0,0,0,3.7-4.082.791.791,0,0,1,.726-.567.854.854,0,0,1,.813.872,8.869,8.869,0,0,1-4.954,5.535,2.066,2.066,0,0,1-.842.189,1.385,1.385,0,0,1-1.38-1.569V16.523Z" transform="translate(-285.251 -15.129)" fill="#fff"/>
    <path id="パス_27" data-name="パス 27" d="M440.982,29.388a.727.727,0,0,1-.668-.8.719.719,0,0,1,.668-.8h9.994a.716.716,0,0,1,.654.8c0,.407-.218.8-.654.8Z" transform="translate(-304.041 -21.674)" fill="#fff"/>
    <path id="パス_28" data-name="パス 28" d="M472.995,16.567a.8.8,0,0,1,1.583,0v4.91c0,2.934-.813,5.389-3.138,6.856a.941.941,0,0,1-.479.16.92.92,0,0,1-.857-.915.7.7,0,0,1,.348-.61c1.816-1.206,2.542-3.094,2.542-5.491v-4.91Zm3.573-.044a.8.8,0,0,1,1.583,0v9.384c0,.2.087.3.218.3a.43.43,0,0,0,.131-.029,7.225,7.225,0,0,0,3.7-4.082.791.791,0,0,1,.726-.567.854.854,0,0,1,.813.872,8.869,8.869,0,0,1-4.954,5.535,2.066,2.066,0,0,1-.842.189,1.385,1.385,0,0,1-1.38-1.569V16.523Z" transform="translate(-320.339 -15.129)" fill="#fff"/>
  </g>
</svg>
