<svg id="logo" xmlns="http://www.w3.org/2000/svg" width="598.719" height="100.395" viewBox="0 0 598.719 100.395">
  <path id="パス_5" data-name="パス 5" d="M8.822,39.174H1.229A50.39,50.39,0,0,1,46.651.135Q48.475,0,50.337,0t3.686.135V21.391a28.881,28.881,0,0,1,7.415,1.96L71.758,13.06A42.62,42.62,0,0,0,61.394,8.8V1.225a50.243,50.243,0,0,1,21.722,10.91L62.777,32.417a21.5,21.5,0,0,0-7.163-3.259c-.522-.135-1.057-.245-1.591-.337a21.9,21.9,0,0,0-7.372,0V7.51A43.011,43.011,0,0,0,8.822,39.174Zm12.63,14.7A29.109,29.109,0,0,0,39.279,77.062v-8.2A21.707,21.707,0,0,1,28.9,53.876a21.718,21.718,0,0,1,0-7.351,21.731,21.731,0,0,1,10.376-15v-8.2A29.118,29.118,0,0,0,21.452,46.525H.135Q0,48.344,0,50.2t.135,3.675H21.452Zm79.087-7.351H46.651v7.351H71.776a21.778,21.778,0,0,1-25.125,17.7V92.885A43.013,43.013,0,0,1,8.822,61.227H1.229A50.391,50.391,0,0,0,46.651,100.26q1.824.138,3.686.135t3.686-.135V79A29.177,29.177,0,0,0,75.708,64.449,28.668,28.668,0,0,0,78.626,57.1a27.846,27.846,0,0,0,.6-3.222h13.92c-.092,1.084-.227,2.162-.4,3.222a42.038,42.038,0,0,1-1.886,7.351A43.071,43.071,0,0,1,61.394,91.6V99.17A50.452,50.452,0,0,0,98.6,64.449a48.415,48.415,0,0,0,1.591-7.351c.154-1.066.264-2.138.344-3.222q.138-1.819.135-3.675t-.135-3.675Z" transform="translate(0 0)" fill="#fff"/>
  <g id="グループ_1" data-name="グループ 1" transform="translate(108.267 45.478)">
    <path id="パス_6" data-name="パス 6" d="M154.755,99.849a27.906,27.906,0,0,1-12.638-2.642,19.088,19.088,0,0,1-8.042-7.251A19.975,19.975,0,0,1,131.3,79.446V75.758A18.954,18.954,0,0,1,142.355,58a28.819,28.819,0,0,1,12.875-2.643,30.4,30.4,0,0,1,11.608,1.875,17.183,17.183,0,0,1,6.854,4.794,15.76,15.76,0,0,1,3.169,5.992l-6.1,1.782a12.146,12.146,0,0,0-2.535-4.64,13.084,13.084,0,0,0-4.992-3.441,21.681,21.681,0,0,0-8.24-1.322q-8.162,0-12.439,4.087a14.075,14.075,0,0,0-4.279,10.662V80.06a14.072,14.072,0,0,0,4.279,10.662q4.278,4.088,12.677,4.087A20.224,20.224,0,0,0,164.462,93a12.429,12.429,0,0,0,5.19-4.609,10.9,10.9,0,0,0,1.664-5.624v-.737H151.348V77.11h26.623v22h-6.5v-7.19a13.716,13.716,0,0,1-6.022,5.838q-4.041,2.089-10.7,2.089Z" transform="translate(-131.302 -55.355)" fill="#fff"/>
    <path id="パス_7" data-name="パス 7" d="M200.4,101.972V72.6h6.5v3.933a12.033,12.033,0,0,1,3.962-3.442,12.375,12.375,0,0,1,5.863-1.229,10.537,10.537,0,0,1,6.3,1.844,5.758,5.758,0,0,1,2.575,4.916v4.548h-6.5V79.6a2.871,2.871,0,0,0-1.149-2.489,4.957,4.957,0,0,0-2.971-.829,6.856,6.856,0,0,0-3.367.768,10.544,10.544,0,0,0-2.417,1.813A6.784,6.784,0,0,0,207.257,82a17.538,17.538,0,0,0-.356,3.872v16.1Z" transform="translate(-143.277 -58.214)" fill="#fff"/>
    <path id="パス_8" data-name="パス 8" d="M252.217,102.709a15.776,15.776,0,0,1-9.033-2.365,7.626,7.626,0,0,1-.555-12.414q2.931-2.365,8.716-2.981l9.349-.983a4.209,4.209,0,0,0,2.456-.861,2.34,2.34,0,0,0,.713-1.782,3.863,3.863,0,0,0-2.338-3.564,12.419,12.419,0,0,0-5.824-1.23,11.707,11.707,0,0,0-5.863,1.352,6.96,6.96,0,0,0-3.248,3.811L240.649,80.4a10.436,10.436,0,0,1,4.873-6.053A18.736,18.736,0,0,1,255.7,71.858q7.052,0,10.855,2.7a9.049,9.049,0,0,1,3.8,7.867v19.543H264.1V96.194a9.355,9.355,0,0,1-4.279,4.763,15.225,15.225,0,0,1-7.606,1.751Zm.4-4.67a13.535,13.535,0,0,0,6.141-1.259A9.665,9.665,0,0,0,262.6,93.46,7.985,7.985,0,0,0,263.944,89v-1.72a6.676,6.676,0,0,1-1.862.768,15.568,15.568,0,0,1-2.654.4l-7.131.614q-6.1.553-6.1,4.794a3.479,3.479,0,0,0,1.743,3.042A8.446,8.446,0,0,0,252.613,98.038Z" transform="translate(-150.086 -58.214)" fill="#fff"/>
    <path id="パス_9" data-name="パス 9" d="M288.865,101.972V72.6h6.5V77.45a8.974,8.974,0,0,1,4.477-4.148,16.546,16.546,0,0,1,7.012-1.444q6.1,0,9.35,2.734A9.179,9.179,0,0,1,319.449,82v19.973h-6.5V82.428a5.271,5.271,0,0,0-1.9-4.394,8.5,8.5,0,0,0-5.388-1.506,10.789,10.789,0,0,0-4,.707,12.743,12.743,0,0,0-3.13,1.751,9.7,9.7,0,0,0-2.417,2.7,7.6,7.6,0,0,0-.752,3.687v16.593Z" transform="translate(-158.606 -58.214)" fill="#fff"/>
    <path id="パス_10" data-name="パス 10" d="M351.595,100a18.744,18.744,0,0,1-8-1.659,13.171,13.171,0,0,1-5.665-4.947,14.83,14.83,0,0,1-2.1-8.143V83.9a14.837,14.837,0,0,1,2.1-8.143,13.181,13.181,0,0,1,5.665-4.947,18.744,18.744,0,0,1,8-1.659,17.706,17.706,0,0,1,7.527,1.475,13.023,13.023,0,0,1,4.992,3.872V56.247h6.5v43.02h-6.5V94.657a13.031,13.031,0,0,1-4.992,3.872A17.718,17.718,0,0,1,351.595,100Zm1.268-4.67a14.526,14.526,0,0,0,4-.553,12.637,12.637,0,0,0,4.16-2.273,10.2,10.2,0,0,0,2.219-2.336,5.587,5.587,0,0,0,.871-3.2V82.181a5.7,5.7,0,0,0-.871-3.258,9.205,9.205,0,0,0-2.219-2.273,12.656,12.656,0,0,0-4.16-2.274,14.929,14.929,0,0,0-9.191.369,7.915,7.915,0,0,0-3.882,3.165,11.07,11.07,0,0,0-1.466,6.116v1.106a10.91,10.91,0,0,0,1.466,6.084,8.139,8.139,0,0,0,3.882,3.165,14,14,0,0,0,5.19.953Z" transform="translate(-166.744 -55.509)" fill="#fff"/>
    <path id="パス_11" data-name="パス 11" d="M432.836,99.849q-11.409,0-17.55-5.438t-6.141-14.9V75.574A19.133,19.133,0,0,1,412,65.187,19.743,19.743,0,0,1,420.159,58a28.175,28.175,0,0,1,12.678-2.643A30.027,30.027,0,0,1,444.4,57.26a18.189,18.189,0,0,1,7.092,5.009,18.421,18.421,0,0,1,3.6,6.668l-6.18,1.72a13.215,13.215,0,0,0-2.575-5.193,12.881,12.881,0,0,0-5.151-3.687,21.966,21.966,0,0,0-8.438-1.383,20.11,20.11,0,0,0-9.112,1.875,13.1,13.1,0,0,0-5.625,5.162,14.756,14.756,0,0,0-1.9,7.528v5.162q0,7.069,4.358,10.878t12.281,3.81q7.446,0,11.093-2.826a14.217,14.217,0,0,0,4.992-7.683l6.418,1.721a18.294,18.294,0,0,1-7.448,10.048q-5.546,3.78-14.975,3.779Z" transform="translate(-179.45 -55.355)" fill="#fff"/>
    <path id="パス_12" data-name="パス 12" d="M490.724,102.709a22.358,22.358,0,0,1-9.112-1.782,14.815,14.815,0,0,1-6.339-5.07,13.432,13.432,0,0,1-2.3-7.9V86.607a13.431,13.431,0,0,1,2.3-7.9,14.829,14.829,0,0,1,6.339-5.071,24.289,24.289,0,0,1,18.263,0,14.879,14.879,0,0,1,6.3,5.071,13.437,13.437,0,0,1,2.3,7.9v1.352a13.438,13.438,0,0,1-2.3,7.9,14.866,14.866,0,0,1-6.3,5.07A22.291,22.291,0,0,1,490.724,102.709Zm0-4.67a12.182,12.182,0,0,0,8.2-2.612q3.049-2.611,3.05-7.59V86.731q0-4.978-3.05-7.591a14.181,14.181,0,0,0-16.4,0q-3.051,2.613-3.05,7.591v1.106q0,4.977,3.05,7.59A12.177,12.177,0,0,0,490.724,98.038Z" transform="translate(-190.511 -58.214)" fill="#fff"/>
    <path id="パス_13" data-name="パス 13" d="M538.479,102.863q-6.1,0-9.35-2.734a9.171,9.171,0,0,1-3.249-7.406V72.75h6.5V92.293a5.288,5.288,0,0,0,1.9,4.364,8.369,8.369,0,0,0,5.388,1.536,10.772,10.772,0,0,0,4-.706,12.7,12.7,0,0,0,3.13-1.752,9.694,9.694,0,0,0,2.416-2.7,7.615,7.615,0,0,0,.752-3.688V72.75h6.5v29.376h-6.5V97.271a8.991,8.991,0,0,1-4.437,4.149A16.489,16.489,0,0,1,538.479,102.863Z" transform="translate(-199.679 -58.369)" fill="#fff"/>
    <path id="パス_14" data-name="パス 14" d="M575.143,99.266V56.247h6.5v43.02Z" transform="translate(-208.215 -55.509)" fill="#fff"/>
    <path id="パス_15" data-name="パス 15" d="M610.751,102.709a22.082,22.082,0,0,1-9.073-1.782,14.582,14.582,0,0,1-6.259-5.07,13.6,13.6,0,0,1-2.258-7.9V86.607a13.121,13.121,0,0,1,2.258-7.559,15.693,15.693,0,0,1,6.18-5.254,19.872,19.872,0,0,1,8.914-1.936,21.549,21.549,0,0,1,9.667,1.905,13.47,13.47,0,0,1,5.7,5.07,13.293,13.293,0,0,1,1.9,6.975v2.335H599.658v.246a8.85,8.85,0,0,0,2.971,7.1q2.972,2.552,8.28,2.55,7.922,0,10.776-5.531l5.467,1.967a13.777,13.777,0,0,1-6.062,6.084,22.061,22.061,0,0,1-10.339,2.151Zm-.159-26.3a12.359,12.359,0,0,0-6.972,1.936,8.633,8.633,0,0,0-3.724,5.684h21.473a7.5,7.5,0,0,0-3.051-5.562q-2.733-2.059-7.725-2.059Z" transform="translate(-211.337 -58.214)" fill="#fff"/>
    <path id="パス_16" data-name="パス 16" d="M657.418,102.863q-6.1,0-9.35-2.734a9.171,9.171,0,0,1-3.249-7.406V72.75h6.5V92.293a5.288,5.288,0,0,0,1.9,4.364,8.369,8.369,0,0,0,5.388,1.536,10.772,10.772,0,0,0,4-.706,12.7,12.7,0,0,0,3.13-1.752,9.694,9.694,0,0,0,2.416-2.7,7.617,7.617,0,0,0,.752-3.688V72.75h6.5v29.376h-6.5V97.271a8.991,8.991,0,0,1-4.437,4.149A16.489,16.489,0,0,1,657.418,102.863Z" transform="translate(-220.289 -58.369)" fill="#fff"/>
    <path id="パス_17" data-name="パス 17" d="M694.081,101.972V72.6h6.5v3.933a12.037,12.037,0,0,1,3.962-3.442,12.374,12.374,0,0,1,5.864-1.229,10.536,10.536,0,0,1,6.3,1.844,5.759,5.759,0,0,1,2.575,4.916v4.548h-6.5V79.6a2.873,2.873,0,0,0-1.149-2.489,4.958,4.958,0,0,0-2.972-.829,6.857,6.857,0,0,0-3.367.768,10.555,10.555,0,0,0-2.416,1.813A6.785,6.785,0,0,0,700.935,82a17.558,17.558,0,0,0-.356,3.872v16.1Z" transform="translate(-228.826 -58.214)" fill="#fff"/>
  </g>
  <g id="グループ_2" data-name="グループ 2" transform="translate(115.156 11.811)">
    <path id="パス_18" data-name="パス 18" d="M144.675,24.965a1.146,1.146,0,0,1-1.087-1.247,1.707,1.707,0,0,1,.132-.636,15.2,15.2,0,0,1-2.89,1.06c-.769,0-1.405-.928-1.405-1.7a.976.976,0,0,1,.716-.981,21.582,21.582,0,0,0,9.758-5.728,2.027,2.027,0,0,1,1.406-.424,2.084,2.084,0,0,1,1.379.4,24.594,24.594,0,0,0,9.732,5.674,1.067,1.067,0,0,1,.8,1.087c0,.8-.61,1.7-1.379,1.7a13.372,13.372,0,0,1-2.731-1.06,1.553,1.553,0,0,1,.106.61,1.13,1.13,0,0,1-1.087,1.247ZM143.19,38.408a1.687,1.687,0,0,1-1.909-1.909v-7.08a1.687,1.687,0,0,1,1.909-1.909h16.254a1.687,1.687,0,0,1,1.909,1.909V36.5a1.687,1.687,0,0,1-1.909,1.909ZM158.622,30.4a.352.352,0,0,0-.4-.4H144.41a.352.352,0,0,0-.4.4v5.117a.352.352,0,0,0,.4.4h13.815a.352.352,0,0,0,.4-.4Zm-.822-7.928a30.818,30.818,0,0,1-6.072-4.19.453.453,0,0,0-.689,0,29.264,29.264,0,0,1-6.072,4.19Z" transform="translate(-139.425 -14.465)" fill="#fff"/>
    <path id="パス_19" data-name="パス 19" d="M192.007,19.611a.838.838,0,0,0-.849-.849H175.885a.837.837,0,0,0-.849.849v18.72c0,.663-.663.981-1.326.981-.689,0-1.352-.318-1.352-.981v-19.7a2.376,2.376,0,0,1,2.386-2.386H192.3a2.447,2.447,0,0,1,2.386,2.386v16.1c0,3.288-1.034,4.587-4.349,4.587a25.254,25.254,0,0,1-3.129-.265,1.206,1.206,0,0,1-.981-1.326c0-.742.4-1.511,1.087-1.511.053,0,.132.027.186.027a16.935,16.935,0,0,0,2.864.424c1.114,0,1.644-.478,1.644-1.989V19.611ZM176.972,23.27a1.228,1.228,0,0,1,0-2.44h13.072a1.107,1.107,0,0,1,1.087,1.22,1.107,1.107,0,0,1-1.087,1.22Zm2.068,11.455A1.882,1.882,0,0,1,177,32.683v-5.41a1.882,1.882,0,0,1,2.042-2.042H187.9a1.881,1.881,0,0,1,2.042,2.042v5.41a1.881,1.881,0,0,1-2.042,2.042Zm8.326-6.682a.431.431,0,0,0-.451-.45h-6.894a.431.431,0,0,0-.451.45v3.872a.431.431,0,0,0,.451.45h6.894a.431.431,0,0,0,.451-.45Z" transform="translate(-145.132 -14.626)" fill="#fff"/>
    <path id="パス_20" data-name="パス 20" d="M208.3,24.582a1.23,1.23,0,0,1-.689-2.2,21.545,21.545,0,0,1-2.864.9,1.541,1.541,0,0,1-1.352-1.591,1.078,1.078,0,0,1,.8-1.114,28.021,28.021,0,0,0,9.44-4.693,2.791,2.791,0,0,1,1.75-.637,2.669,2.669,0,0,1,1.724.637,26.269,26.269,0,0,0,9.44,4.773,1.068,1.068,0,0,1,.8,1.087,1.536,1.536,0,0,1-1.379,1.564,13.924,13.924,0,0,1-2.6-.822,1.242,1.242,0,0,1,.371.9,1.16,1.16,0,0,1-1.14,1.193H208.3Zm4.508,4.905a51.913,51.913,0,0,1-3.42,6.523c5.833-.291,10.58-.8,12.94-1.14-.769-1.034-1.511-1.989-2.2-2.758a1.106,1.106,0,0,1-.291-.742,1.324,1.324,0,0,1,1.3-1.22.934.934,0,0,1,.689.318,50.811,50.811,0,0,1,4.932,6.417,1.245,1.245,0,0,1,.212.716,1.548,1.548,0,0,1-1.432,1.485.9.9,0,0,1-.822-.5q-.438-.8-.955-1.591a175,175,0,0,1-18.72,1.7h-.079a1.286,1.286,0,0,1-1.22-1.379,1.015,1.015,0,0,1,1.008-1.114c.5,0,.981-.026,1.458-.053A35.609,35.609,0,0,0,210,29.488h-5.171a1.114,1.114,0,0,1-1.087-1.193,1.1,1.1,0,0,1,1.087-1.193h21.133a1.085,1.085,0,0,1,1.087,1.193,1.1,1.1,0,0,1-1.087,1.193H212.812ZM222.7,22.2a33.053,33.053,0,0,1-7.053-4.243.287.287,0,0,0-.159-.053.386.386,0,0,0-.186.053A36.268,36.268,0,0,1,207.96,22.2Z" transform="translate(-150.511 -14.453)" fill="#fff"/>
    <path id="パス_21" data-name="パス 21" d="M239.868,28.8c-2.307,1.777-2.81,1.962-3.129,1.962a1.356,1.356,0,0,1-1.273-1.326,1.055,1.055,0,0,1,.557-.928,22.636,22.636,0,0,0,7.451-6.921c.027-.053.053-.08.053-.132a.114.114,0,0,0-.106-.106h-6.072a1.085,1.085,0,0,1-1.087-1.14,1.071,1.071,0,0,1,1.087-1.14h2.519V16.336a1.243,1.243,0,0,1,2.466,0v2.731h1.883a1.677,1.677,0,0,1,1.83,1.8c0,1.114-.955,2.784-2.97,4.958.663.53,2.121,1.777,2.943,2.44a.976.976,0,0,1,.4.8,1.431,1.431,0,0,1-1.3,1.379.965.965,0,0,1-.663-.265c-.636-.557-1.564-1.564-2.121-2.042v9.944a1.243,1.243,0,0,1-2.466,0V28.8Zm5.807,9.625a1.273,1.273,0,0,1,0-2.519h5.648V23.044h-3.845a1.145,1.145,0,0,1-1.087-1.246,1.131,1.131,0,0,1,1.087-1.246h3.845V16.495a1.283,1.283,0,0,1,1.406-1.246,1.267,1.267,0,0,1,1.352,1.246v4.057h3.712A1.115,1.115,0,0,1,258.88,21.8a1.129,1.129,0,0,1-1.087,1.246h-3.712V35.9H258.3a1.273,1.273,0,0,1,0,2.519H245.675Z" transform="translate(-156.068 -14.453)" fill="#fff"/>
    <path id="パス_22" data-name="パス 22" d="M286.772,21.631c-1.883,2.493-5.781,5.833-7.08,5.833a1.545,1.545,0,0,1-1.511-1.511,1.325,1.325,0,0,1,.69-1.14,18.172,18.172,0,0,0,7.557-8.406,1.369,1.369,0,0,1,1.3-.769,1.406,1.406,0,0,1,1.538,1.246,7.3,7.3,0,0,1-.849,2.174h8.8c1.962,0,3,1.061,3,2.784a6.966,6.966,0,0,1-.053.716c-1.167,8.353-5.595,15.22-17.315,16.466-.08,0-.159.027-.239.027a1.469,1.469,0,0,1-1.485-1.512,1.349,1.349,0,0,1,1.247-1.379c9.015-1.034,13.788-5.807,14.875-13.682a1.626,1.626,0,0,0,.027-.345c0-.4-.186-.5-.636-.5h-9.864Zm13.576-1.83a.927.927,0,0,1-.769-.45,15.942,15.942,0,0,0-1.856-2.28.9.9,0,0,1,.689-1.565,1.035,1.035,0,0,1,.716.318c1.485,1.432,2.254,2.572,2.254,3A1.025,1.025,0,0,1,300.348,19.8Zm2.519-1.511a.875.875,0,0,1-.716-.4,13.282,13.282,0,0,0-1.83-2.095.917.917,0,0,1-.318-.637.937.937,0,0,1,.955-.875,1.062,1.062,0,0,1,.689.291c2.121,2.042,2.174,2.572,2.174,2.784A.963.963,0,0,1,302.867,18.29Z" transform="translate(-163.47 -14.287)" fill="#fff"/>
    <path id="パス_23" data-name="パス 23" d="M312.719,26.21a1.262,1.262,0,0,1-1.22-1.352,1.248,1.248,0,0,1,1.22-1.352h17.368a2.707,2.707,0,0,1,2.89,2.811,2.9,2.9,0,0,1-.053.663c-1.06,6.072-5.091,11.243-14.689,12.462-.08,0-.159.027-.239.027a1.549,1.549,0,0,1-1.511-1.617A1.292,1.292,0,0,1,317.65,36.5c8.22-1.3,11.057-4.534,12.277-9.36a1.35,1.35,0,0,0,.053-.318.586.586,0,0,0-.663-.61h-16.6Zm1.723-6.364a1.267,1.267,0,0,1-1.246-1.352,1.252,1.252,0,0,1,1.246-1.352h15.512a1.253,1.253,0,0,1,1.247,1.352,1.267,1.267,0,0,1-1.247,1.352Z" transform="translate(-169.244 -14.781)" fill="#fff"/>
    <path id="パス_24" data-name="パス 24" d="M351.7,23.749a46.281,46.281,0,0,0-6.894-3.845,1.263,1.263,0,0,1-.822-1.167,1.573,1.573,0,0,1,1.511-1.565c.769,0,5.383,2.254,7.743,3.9a1.481,1.481,0,0,1,.716,1.22,1.745,1.745,0,0,1-1.591,1.67A1.091,1.091,0,0,1,351.7,23.749Zm-5.78,15.326a1.285,1.285,0,0,1-.318.027,1.6,1.6,0,0,1-1.591-1.644,1.33,1.33,0,0,1,1.14-1.352c10.235-1.75,15.538-6.019,18-13.815a1.281,1.281,0,0,1,1.273-.875,1.44,1.44,0,0,1,1.538,1.379,2.625,2.625,0,0,1-.053.424c-2.1,7.9-8.856,14.239-19.993,15.856Z" transform="translate(-174.873 -14.787)" fill="#fff"/>
    <path id="パス_25" data-name="パス 25" d="M383.582,21.369C381.7,23.862,377.8,27.2,376.5,27.2a1.545,1.545,0,0,1-1.511-1.512,1.324,1.324,0,0,1,.689-1.14,18.17,18.17,0,0,0,7.557-8.406,1.37,1.37,0,0,1,1.3-.769,1.407,1.407,0,0,1,1.538,1.246,7.3,7.3,0,0,1-.849,2.175h8.8c1.962,0,3,1.06,3,2.784,0,.212-.027.477-.052.716-1.167,8.353-5.595,15.22-17.315,16.466-.08,0-.159.027-.239.027a1.469,1.469,0,0,1-1.485-1.511,1.35,1.35,0,0,1,1.247-1.379c9.015-1.034,13.788-5.807,14.875-13.682a1.624,1.624,0,0,0,.027-.345c0-.4-.186-.5-.637-.5Z" transform="translate(-180.246 -14.476)" fill="#fff"/>
    <path id="パス_26" data-name="パス 26" d="M411.246,17.178a1.461,1.461,0,0,1,2.89,0v8.962c0,5.356-1.485,9.837-5.727,12.515a1.718,1.718,0,0,1-.875.292,1.679,1.679,0,0,1-1.565-1.67,1.281,1.281,0,0,1,.636-1.114c3.315-2.2,4.641-5.648,4.641-10.023Zm6.522-.08a1.457,1.457,0,0,1,2.89,0V34.228c0,.371.159.557.4.557a.784.784,0,0,0,.239-.053,13.189,13.189,0,0,0,6.761-7.451,1.444,1.444,0,0,1,1.326-1.034,1.559,1.559,0,0,1,1.485,1.591c0,.742-2.174,6.92-9.042,10.1a3.771,3.771,0,0,1-1.537.345c-1.432,0-2.52-1.008-2.52-2.864V17.1Z" transform="translate(-185.614 -14.553)" fill="#fff"/>
    <path id="パス_27" data-name="パス 27" d="M441.534,30.707a1.327,1.327,0,0,1-1.22-1.458,1.312,1.312,0,0,1,1.22-1.458h18.243a1.307,1.307,0,0,1,1.193,1.458c0,.742-.4,1.458-1.193,1.458Z" transform="translate(-191.566 -16.627)" fill="#fff"/>
    <path id="パス_28" data-name="パス 28" d="M475.38,17.178a1.461,1.461,0,0,1,2.89,0v8.962c0,5.356-1.485,9.837-5.727,12.515a1.717,1.717,0,0,1-.875.292,1.679,1.679,0,0,1-1.565-1.67,1.281,1.281,0,0,1,.636-1.114c3.315-2.2,4.641-5.648,4.641-10.023Zm6.522-.08a1.457,1.457,0,0,1,2.89,0V34.228c0,.371.159.557.4.557a.784.784,0,0,0,.239-.053,13.189,13.189,0,0,0,6.761-7.451,1.444,1.444,0,0,1,1.326-1.034A1.559,1.559,0,0,1,495,27.838c0,.742-2.174,6.92-9.042,10.1a3.77,3.77,0,0,1-1.537.345c-1.432,0-2.52-1.008-2.52-2.864V17.1Z" transform="translate(-196.728 -14.553)" fill="#fff"/>
  </g>
</svg>
